<mxfile host="app.diagrams.net" modified="2020-07-17T17:13:28.935Z" agent="5.0 (Macintosh; Intel Mac OS X 10_15_5) AppleWebKit/537.36 (KHTML, like Gecko) Chrome/83.0.4103.116 Safari/537.36" etag="N96oNSVTmL_7n2lx1M9H" version="13.4.2" type="github">
  <diagram id="ZgTT6VvoAUMh3Uv9rNCO" name="Page-1">
    <mxGraphModel dx="2066" dy="1105" grid="1" gridSize="10" guides="1" tooltips="1" connect="1" arrows="1" fold="1" page="1" pageScale="1" pageWidth="827" pageHeight="1169" math="0" shadow="0">
      <root>
        <mxCell id="0" />
        <mxCell id="1" parent="0" />
        <mxCell id="GBIZj7Rgwo6lFun_7OnE-1" style="rounded=0;orthogonalLoop=1;jettySize=auto;html=1;entryX=1;entryY=0;entryDx=0;entryDy=0;fillColor=#dae8fc;strokeColor=#6c8ebf;" edge="1" parent="1" source="GBIZj7Rgwo6lFun_7OnE-3" target="GBIZj7Rgwo6lFun_7OnE-6">
          <mxGeometry relative="1" as="geometry" />
        </mxCell>
        <mxCell id="GBIZj7Rgwo6lFun_7OnE-2" style="edgeStyle=none;rounded=0;orthogonalLoop=1;jettySize=auto;html=1;entryX=0;entryY=0;entryDx=0;entryDy=0;fillColor=#dae8fc;strokeColor=#6c8ebf;" edge="1" parent="1" source="GBIZj7Rgwo6lFun_7OnE-3" target="GBIZj7Rgwo6lFun_7OnE-8">
          <mxGeometry relative="1" as="geometry" />
        </mxCell>
        <mxCell id="GBIZj7Rgwo6lFun_7OnE-3" value="" style="ellipse;whiteSpace=wrap;html=1;aspect=fixed;fillColor=#dae8fc;strokeColor=#6c8ebf;" vertex="1" parent="1">
          <mxGeometry x="380" y="270" width="50" height="50" as="geometry" />
        </mxCell>
        <mxCell id="GBIZj7Rgwo6lFun_7OnE-4" style="edgeStyle=none;rounded=0;orthogonalLoop=1;jettySize=auto;html=1;fillColor=#dae8fc;strokeColor=#6c8ebf;" edge="1" parent="1" source="GBIZj7Rgwo6lFun_7OnE-6" target="GBIZj7Rgwo6lFun_7OnE-9">
          <mxGeometry relative="1" as="geometry" />
        </mxCell>
        <mxCell id="GBIZj7Rgwo6lFun_7OnE-5" style="edgeStyle=none;rounded=0;orthogonalLoop=1;jettySize=auto;html=1;entryX=0;entryY=0;entryDx=0;entryDy=0;fillColor=#dae8fc;strokeColor=#6c8ebf;" edge="1" parent="1" source="GBIZj7Rgwo6lFun_7OnE-6" target="GBIZj7Rgwo6lFun_7OnE-10">
          <mxGeometry relative="1" as="geometry" />
        </mxCell>
        <mxCell id="GBIZj7Rgwo6lFun_7OnE-6" value="" style="ellipse;whiteSpace=wrap;html=1;aspect=fixed;fillColor=#dae8fc;strokeColor=#6c8ebf;" vertex="1" parent="1">
          <mxGeometry x="300" y="350" width="50" height="50" as="geometry" />
        </mxCell>
        <mxCell id="GBIZj7Rgwo6lFun_7OnE-7" style="edgeStyle=none;rounded=0;orthogonalLoop=1;jettySize=auto;html=1;entryX=0;entryY=0;entryDx=0;entryDy=0;fillColor=#dae8fc;strokeColor=#6c8ebf;" edge="1" parent="1" source="GBIZj7Rgwo6lFun_7OnE-8" target="GBIZj7Rgwo6lFun_7OnE-12">
          <mxGeometry relative="1" as="geometry" />
        </mxCell>
        <mxCell id="GBIZj7Rgwo6lFun_7OnE-8" value="" style="ellipse;whiteSpace=wrap;html=1;aspect=fixed;fillColor=#dae8fc;strokeColor=#6c8ebf;" vertex="1" parent="1">
          <mxGeometry x="464" y="350" width="50" height="50" as="geometry" />
        </mxCell>
        <mxCell id="GBIZj7Rgwo6lFun_7OnE-9" value="" style="ellipse;whiteSpace=wrap;html=1;aspect=fixed;fillColor=#dae8fc;strokeColor=#6c8ebf;" vertex="1" parent="1">
          <mxGeometry x="230" y="410" width="50" height="50" as="geometry" />
        </mxCell>
        <mxCell id="GBIZj7Rgwo6lFun_7OnE-10" value="" style="ellipse;whiteSpace=wrap;html=1;aspect=fixed;fillColor=#dae8fc;strokeColor=#6c8ebf;" vertex="1" parent="1">
          <mxGeometry x="364" y="410" width="50" height="50" as="geometry" />
        </mxCell>
        <mxCell id="GBIZj7Rgwo6lFun_7OnE-11" style="edgeStyle=none;rounded=0;orthogonalLoop=1;jettySize=auto;html=1;fillColor=#dae8fc;strokeColor=#6c8ebf;" edge="1" parent="1" source="GBIZj7Rgwo6lFun_7OnE-12" target="GBIZj7Rgwo6lFun_7OnE-14">
          <mxGeometry relative="1" as="geometry" />
        </mxCell>
        <mxCell id="GBIZj7Rgwo6lFun_7OnE-12" value="" style="ellipse;whiteSpace=wrap;html=1;aspect=fixed;fillColor=#dae8fc;strokeColor=#6c8ebf;" vertex="1" parent="1">
          <mxGeometry x="530" y="410" width="50" height="50" as="geometry" />
        </mxCell>
        <mxCell id="GBIZj7Rgwo6lFun_7OnE-13" style="edgeStyle=none;rounded=0;orthogonalLoop=1;jettySize=auto;html=1;fillColor=#dae8fc;strokeColor=#6c8ebf;" edge="1" parent="1" source="GBIZj7Rgwo6lFun_7OnE-14" target="GBIZj7Rgwo6lFun_7OnE-15">
          <mxGeometry relative="1" as="geometry" />
        </mxCell>
        <mxCell id="GBIZj7Rgwo6lFun_7OnE-14" value="" style="ellipse;whiteSpace=wrap;html=1;aspect=fixed;fillColor=#dae8fc;strokeColor=#6c8ebf;" vertex="1" parent="1">
          <mxGeometry x="464" y="490" width="50" height="50" as="geometry" />
        </mxCell>
        <mxCell id="GBIZj7Rgwo6lFun_7OnE-15" value="" style="ellipse;whiteSpace=wrap;html=1;aspect=fixed;fillColor=#dae8fc;strokeColor=#6c8ebf;" vertex="1" parent="1">
          <mxGeometry x="530" y="540" width="50" height="50" as="geometry" />
        </mxCell>
        <mxCell id="GBIZj7Rgwo6lFun_7OnE-16" style="edgeStyle=none;rounded=0;orthogonalLoop=1;jettySize=auto;html=1;exitX=1;exitY=1;exitDx=0;exitDy=0;fillColor=#dae8fc;strokeColor=#6c8ebf;" edge="1" parent="1" source="GBIZj7Rgwo6lFun_7OnE-15" target="GBIZj7Rgwo6lFun_7OnE-15">
          <mxGeometry relative="1" as="geometry" />
        </mxCell>
        <mxCell id="GBIZj7Rgwo6lFun_7OnE-17" style="rounded=0;orthogonalLoop=1;jettySize=auto;html=1;entryX=1;entryY=0;entryDx=0;entryDy=0;fillColor=#dae8fc;strokeColor=#6c8ebf;" edge="1" parent="1" source="GBIZj7Rgwo6lFun_7OnE-19" target="GBIZj7Rgwo6lFun_7OnE-22">
          <mxGeometry relative="1" as="geometry" />
        </mxCell>
        <mxCell id="GBIZj7Rgwo6lFun_7OnE-18" style="edgeStyle=none;rounded=0;orthogonalLoop=1;jettySize=auto;html=1;entryX=0;entryY=0;entryDx=0;entryDy=0;fillColor=#dae8fc;strokeColor=#6c8ebf;" edge="1" parent="1" source="GBIZj7Rgwo6lFun_7OnE-19" target="GBIZj7Rgwo6lFun_7OnE-24">
          <mxGeometry relative="1" as="geometry" />
        </mxCell>
        <mxCell id="GBIZj7Rgwo6lFun_7OnE-35" style="edgeStyle=orthogonalEdgeStyle;rounded=0;orthogonalLoop=1;jettySize=auto;html=1;entryX=0.96;entryY=0.68;entryDx=0;entryDy=0;entryPerimeter=0;curved=1;fillColor=#dae8fc;strokeColor=#6c8ebf;" edge="1" parent="1" source="GBIZj7Rgwo6lFun_7OnE-19" target="GBIZj7Rgwo6lFun_7OnE-31">
          <mxGeometry relative="1" as="geometry">
            <Array as="points">
              <mxPoint x="1200" y="295" />
              <mxPoint x="1200" y="574" />
            </Array>
          </mxGeometry>
        </mxCell>
        <mxCell id="GBIZj7Rgwo6lFun_7OnE-19" value="" style="ellipse;whiteSpace=wrap;html=1;aspect=fixed;fillColor=#dae8fc;strokeColor=#6c8ebf;" vertex="1" parent="1">
          <mxGeometry x="960" y="270" width="50" height="50" as="geometry" />
        </mxCell>
        <mxCell id="GBIZj7Rgwo6lFun_7OnE-20" style="edgeStyle=none;rounded=0;orthogonalLoop=1;jettySize=auto;html=1;fillColor=#dae8fc;strokeColor=#6c8ebf;" edge="1" parent="1" source="GBIZj7Rgwo6lFun_7OnE-22" target="GBIZj7Rgwo6lFun_7OnE-25">
          <mxGeometry relative="1" as="geometry" />
        </mxCell>
        <mxCell id="GBIZj7Rgwo6lFun_7OnE-21" style="edgeStyle=none;rounded=0;orthogonalLoop=1;jettySize=auto;html=1;entryX=0;entryY=0;entryDx=0;entryDy=0;fillColor=#dae8fc;strokeColor=#6c8ebf;" edge="1" parent="1" source="GBIZj7Rgwo6lFun_7OnE-22" target="GBIZj7Rgwo6lFun_7OnE-26">
          <mxGeometry relative="1" as="geometry" />
        </mxCell>
        <mxCell id="GBIZj7Rgwo6lFun_7OnE-22" value="" style="ellipse;whiteSpace=wrap;html=1;aspect=fixed;fillColor=#dae8fc;strokeColor=#6c8ebf;" vertex="1" parent="1">
          <mxGeometry x="880" y="350" width="50" height="50" as="geometry" />
        </mxCell>
        <mxCell id="GBIZj7Rgwo6lFun_7OnE-23" style="edgeStyle=none;rounded=0;orthogonalLoop=1;jettySize=auto;html=1;entryX=0;entryY=0;entryDx=0;entryDy=0;fillColor=#dae8fc;strokeColor=#6c8ebf;" edge="1" parent="1" source="GBIZj7Rgwo6lFun_7OnE-24" target="GBIZj7Rgwo6lFun_7OnE-28">
          <mxGeometry relative="1" as="geometry" />
        </mxCell>
        <mxCell id="GBIZj7Rgwo6lFun_7OnE-24" value="" style="ellipse;whiteSpace=wrap;html=1;aspect=fixed;fillColor=#dae8fc;strokeColor=#6c8ebf;" vertex="1" parent="1">
          <mxGeometry x="1044" y="350" width="50" height="50" as="geometry" />
        </mxCell>
        <mxCell id="GBIZj7Rgwo6lFun_7OnE-25" value="" style="ellipse;whiteSpace=wrap;html=1;aspect=fixed;fillColor=#dae8fc;strokeColor=#6c8ebf;" vertex="1" parent="1">
          <mxGeometry x="810" y="410" width="50" height="50" as="geometry" />
        </mxCell>
        <mxCell id="GBIZj7Rgwo6lFun_7OnE-26" value="" style="ellipse;whiteSpace=wrap;html=1;aspect=fixed;fillColor=#dae8fc;strokeColor=#6c8ebf;" vertex="1" parent="1">
          <mxGeometry x="944" y="410" width="50" height="50" as="geometry" />
        </mxCell>
        <mxCell id="GBIZj7Rgwo6lFun_7OnE-28" value="" style="ellipse;whiteSpace=wrap;html=1;aspect=fixed;fillColor=#dae8fc;strokeColor=#6c8ebf;" vertex="1" parent="1">
          <mxGeometry x="1110" y="410" width="50" height="50" as="geometry" />
        </mxCell>
        <mxCell id="GBIZj7Rgwo6lFun_7OnE-31" value="" style="ellipse;whiteSpace=wrap;html=1;aspect=fixed;fillColor=#dae8fc;strokeColor=#6c8ebf;" vertex="1" parent="1">
          <mxGeometry x="1110" y="540" width="50" height="50" as="geometry" />
        </mxCell>
        <mxCell id="GBIZj7Rgwo6lFun_7OnE-32" style="edgeStyle=none;rounded=0;orthogonalLoop=1;jettySize=auto;html=1;exitX=1;exitY=1;exitDx=0;exitDy=0;fillColor=#dae8fc;strokeColor=#6c8ebf;" edge="1" parent="1" source="GBIZj7Rgwo6lFun_7OnE-31" target="GBIZj7Rgwo6lFun_7OnE-31">
          <mxGeometry relative="1" as="geometry" />
        </mxCell>
        <mxCell id="GBIZj7Rgwo6lFun_7OnE-33" value="" style="shape=cross;whiteSpace=wrap;html=1;direction=north;rotation=45;fillColor=#e51400;strokeColor=#B20000;fontColor=#ffffff;" vertex="1" parent="1">
          <mxGeometry x="454.63" y="477.52000000000004" width="68.75" height="74.96" as="geometry" />
        </mxCell>
        <mxCell id="GBIZj7Rgwo6lFun_7OnE-36" value="" style="html=1;shadow=0;dashed=0;align=center;verticalAlign=middle;shape=mxgraph.arrows2.arrow;dy=0.6;dx=40;notch=0;fillColor=#e1d5e7;strokeColor=#9673a6;" vertex="1" parent="1">
          <mxGeometry x="650" y="400" width="100" height="30" as="geometry" />
        </mxCell>
      </root>
    </mxGraphModel>
  </diagram>
</mxfile>
